<svg xmlns="http://www.w3.org/2000/svg" viewBox="0 0 400 400"><defs><style>.cls-1{fill:none;}.cls-2{fill:#fff;}.cls-3{fill:#e18241;}</style></defs><g id="Layer_2" data-name="Layer 2"><g id="Gosling_Logo" data-name="Gosling Logo"><rect class="cls-1" width="400" height="400"/><circle cx="110.62" cy="129.64" r="41.69"/><circle class="cls-2" cx="124.14" cy="114.12" r="10.76"/><circle cx="288.56" cy="129.64" r="41.69"/><circle class="cls-2" cx="302.07" cy="114.12" r="10.76"/><path class="cls-3" d="M313.1,241.64l8.61-22.09a430.11,430.11,0,0,0-88-15.87L224,225.63A384.54,384.54,0,0,1,313.1,241.64Z"/><path class="cls-3" d="M208.63,260.53a299.77,299.77,0,0,1,90.56,16.79L308,254.79a371.68,371.68,0,0,0-90-15.47Z"/><path class="cls-3" d="M174.4,225.56l-9-22a431.34,431.34,0,0,0-88,15.43l8.9,22A385.08,385.08,0,0,1,174.4,225.56Z"/><path class="cls-3" d="M100.71,276.35a300.51,300.51,0,0,1,87.91-15.82L180,239.29a372.51,372.51,0,0,0-88.3,14.76Z"/><path class="cls-3" d="M106.52,290.71c27.53,13.92,59.05,21.34,92.05,21.34h0c33.68,0,65.83-7.72,93.75-22.2a291.31,291.31,0,0,0-186.33-.4Z"/></g></g></svg>