<?xml version="1.0" encoding="utf-8"?>
<!-- Generator: Adobe Illustrator 26.3.1, SVG Export Plug-In . SVG Version: 6.00 Build 0)  -->
<svg version="1.1" id="Layer_1" xmlns="http://www.w3.org/2000/svg" xmlns:xlink="http://www.w3.org/1999/xlink" x="0px" y="0px"
	 viewBox="0 0 400 400" style="enable-background:new 0 0 400 400;" xml:space="preserve">
<style type="text/css">
	.st0{fill:none;}
	.st1{stroke:#FFFFFF;stroke-width:5;stroke-miterlimit:10;}
	.st2{fill:#FFFFFF;}
	.st3{fill:#E18241;}
</style>
<g id="Layer_2_00000075157656360594704520000013401423400618990774_">
	<g id="Gosling_Logo">
		<rect class="st0" width="400" height="400"/>
		<circle class="st1" cx="110.6" cy="129.6" r="43.9"/>
		<circle class="st2" cx="124.1" cy="114.1" r="10.8"/>
		<circle class="st1" cx="288.6" cy="129.6" r="43.9"/>
		<circle class="st2" cx="302.1" cy="114.1" r="10.8"/>
		<path class="st3" d="M313.1,241.6l8.6-22.1c-28.7-8.3-58.2-13.7-88-15.9l-9.7,21.9C254.2,227.4,284.1,232.8,313.1,241.6z"/>
		<path class="st3" d="M208.6,260.5c30.9,0.9,61.4,6.6,90.6,16.8l8.8-22.5c-29.3-8.8-59.5-14-90-15.5L208.6,260.5z"/>
		<path class="st3" d="M174.4,225.6l-9-22c-29.8,2.1-59.3,7.3-88,15.4l8.9,22C115,232.4,144.5,227.3,174.4,225.6z"/>
		<path class="st3" d="M100.7,276.4c28.4-9.6,58-15,87.9-15.8l-8.6-21.2c-29.9,1.4-59.6,6.3-88.3,14.8L100.7,276.4z"/>
		<path class="st3" d="M106.5,290.7c27.5,13.9,59,21.3,92.1,21.3l0,0c33.7,0,65.8-7.7,93.8-22.2c-60.4-20.5-125.9-20.7-186.3-0.4
			L106.5,290.7z"/>
	</g>
</g>
</svg>
